<svg width="81" height="21" viewBox="0 0 81 21" fill="none" xmlns="http://www.w3.org/2000/svg">
<path d="M11.8916 13.5532H14.5547V15.5439H11.8916V20H9.43945V15.5439H0.69873V14.1069L9.29443 0.804688H11.8916V13.5532ZM3.46729 13.5532H9.43945V4.14014L9.14941 4.66748L3.46729 13.5532ZM18.8265 10.376L19.802 0.804688H29.637V3.05908H21.8719L21.2918 8.29297C22.2322 7.73926 23.3001 7.4624 24.4954 7.4624C26.2444 7.4624 27.6331 8.04248 28.6614 9.20264C29.6897 10.354 30.2039 11.9141 30.2039 13.8828C30.2039 15.8604 29.6678 17.4204 28.5955 18.563C27.532 19.6968 26.0423 20.2637 24.1263 20.2637C22.43 20.2637 21.0457 19.7935 19.9734 18.853C18.9012 17.9126 18.2903 16.6118 18.1409 14.9507H20.448C20.5974 16.0493 20.9886 16.8799 21.6214 17.4424C22.2542 17.9961 23.0891 18.2729 24.1263 18.2729C25.26 18.2729 26.1477 17.8862 26.7893 17.1128C27.4397 16.3394 27.7649 15.2715 27.7649 13.9092C27.7649 12.626 27.4134 11.5977 26.7102 10.8242C26.0159 10.042 25.0887 9.65088 23.9285 9.65088C22.865 9.65088 22.0301 9.88379 21.4236 10.3496L20.7776 10.877L18.8265 10.376ZM45.8531 11.813C45.8531 14.6694 45.3653 16.792 44.3897 18.1807C43.4141 19.5693 41.8892 20.2637 39.815 20.2637C37.7672 20.2637 36.251 19.5869 35.2667 18.2334C34.2823 16.8711 33.7725 14.8408 33.7374 12.1426V8.88623C33.7374 6.06494 34.2252 3.96875 35.2008 2.59766C36.1763 1.22656 37.7056 0.541016 39.7886 0.541016C41.8541 0.541016 43.3746 1.20459 44.3502 2.53174C45.3258 3.8501 45.8267 5.88916 45.8531 8.64893V11.813ZM43.4141 8.47754C43.4141 6.41211 43.1241 4.90918 42.544 3.96875C41.9639 3.01953 41.0455 2.54492 39.7886 2.54492C38.5406 2.54492 37.6309 3.01514 37.0596 3.95557C36.4884 4.896 36.1939 6.3418 36.1763 8.29297V12.1953C36.1763 14.2695 36.4752 15.8032 37.0728 16.7964C37.6793 17.7808 38.5933 18.2729 39.815 18.2729C41.0191 18.2729 41.9112 17.8071 42.4913 16.8755C43.0802 15.9438 43.3878 14.4761 43.4141 12.4722V8.47754ZM55.4379 11.0747L53.0912 13.5137V20H50.5599V0.804688H53.0912V10.2969L61.621 0.804688H64.6796L57.1254 9.28174L65.2728 20H62.2406L55.4379 11.0747ZM75.0421 9.70361H80.3947V12.0107H75.0421V18.0752H72.59V12.0107H67.2374V9.70361H72.59V4.10059H75.0421V9.70361Z" fill="#230B59"/>
</svg>
