<svg width="66" height="31" viewBox="0 0 66 31" fill="none" xmlns="http://www.w3.org/2000/svg">
<path d="M54.4133 6.40591C54.6637 5.63382 55.7563 5.63382 56.0067 6.40591L57.9616 12.4213C58.0162 12.5896 58.1226 12.7362 58.2656 12.8403C58.4086 12.9443 58.5809 13.0005 58.7578 13.0007H65.0854C65.8962 13.0007 66.2346 14.0399 65.5778 14.5176L60.4591 18.2356C60.3161 18.3397 60.2097 18.4864 60.1552 18.6546C60.1006 18.8228 60.1006 19.004 60.1553 19.1722L62.1101 25.1887C62.3616 25.9608 61.4774 26.603 60.8205 26.1263L55.7019 22.4072C55.5587 22.3033 55.3864 22.2474 55.2095 22.2474C55.0326 22.2474 54.8602 22.3033 54.7171 22.4072L49.5995 26.1263C48.9426 26.603 48.0595 25.9608 48.3099 25.1887L50.2647 19.1722C50.3194 19.004 50.3194 18.8228 50.2648 18.6546C50.2103 18.4864 50.1039 18.3397 49.9609 18.2356L44.8412 14.5166C44.1843 14.0399 44.5217 13.0007 45.3336 13.0007H51.6601C51.8369 13.0005 52.009 12.9445 52.152 12.8407C52.295 12.7368 52.4015 12.5904 52.4563 12.4224L54.4133 6.40487V6.40591Z" fill="#230B59"/>
<path d="M10.5703 14.2695H12.9375V16.0391H10.5703V20H8.39062V16.0391H0.621094V14.7617L8.26172 2.9375H10.5703V14.2695ZM3.08203 14.2695H8.39062V5.90234L8.13281 6.37109L3.08203 14.2695ZM16.1136 18.8633C16.1136 18.4883 16.2229 18.1758 16.4417 17.9258C16.6683 17.6758 17.0042 17.5508 17.4495 17.5508C17.8948 17.5508 18.2308 17.6758 18.4573 17.9258C18.6917 18.1758 18.8089 18.4883 18.8089 18.8633C18.8089 19.2227 18.6917 19.5234 18.4573 19.7656C18.2308 20.0078 17.8948 20.1289 17.4495 20.1289C17.0042 20.1289 16.6683 20.0078 16.4417 19.7656C16.2229 19.5234 16.1136 19.2227 16.1136 18.8633ZM31.4303 12.5C30.9771 13.0391 30.4342 13.4727 29.8013 13.8008C29.1763 14.1289 28.4888 14.293 27.7388 14.293C26.7545 14.293 25.8951 14.0508 25.1607 13.5664C24.4342 13.082 23.8717 12.4023 23.4732 11.5273C23.0748 10.6445 22.8756 9.67188 22.8756 8.60938C22.8756 7.46875 23.0904 6.44141 23.5201 5.52734C23.9576 4.61328 24.5748 3.91406 25.3717 3.42969C26.1685 2.94531 27.0982 2.70312 28.1607 2.70312C29.8482 2.70312 31.1763 3.33594 32.1451 4.60156C33.1217 5.85938 33.6099 7.57812 33.6099 9.75781V10.3906C33.6099 13.7109 32.9537 16.1367 31.6412 17.668C30.3287 19.1914 28.3482 19.9727 25.6998 20.0117H25.2779V18.1836H25.7349C27.524 18.1523 28.899 17.6875 29.8599 16.7891C30.8209 15.8828 31.3443 14.4531 31.4303 12.5ZM28.0904 12.5C28.817 12.5 29.4849 12.2773 30.0943 11.832C30.7115 11.3867 31.1607 10.8359 31.442 10.1797V9.3125C31.442 7.89062 31.1334 6.73438 30.5162 5.84375C29.899 4.95312 29.1178 4.50781 28.1724 4.50781C27.2193 4.50781 26.4537 4.875 25.8756 5.60938C25.2974 6.33594 25.0084 7.29688 25.0084 8.49219C25.0084 9.65625 25.2857 10.6172 25.8404 11.375C26.4029 12.125 27.1529 12.5 28.0904 12.5Z" fill="#230B59"/>
</svg>
